<?xml version="1.0" encoding="UTF-8"?>
<!-- Generated by Pixelmator Pro 3.6.17 -->
<svg width="3800" height="300" viewBox="0 0 3800 300" xmlns="http://www.w3.org/2000/svg">
    <path id="THE-ARTIFACT" fill="#ffffff" fill-rule="evenodd" stroke="none" d="M 3490.64209 101.229996 L 3605.336914 101.229996 L 3605.336914 221 L 3628.479004 221 L 3628.479004 101.229996 L 3743.580078 101.229996 L 3743.580078 78.899994 L 3490.64209 78.899994 Z M 3139.655029 149.747009 C 3139.655029 189.535004 3174.165039 220.796997 3214.358887 220.796997 L 3393.201904 220.796997 L 3393.201904 198.669998 L 3214.358887 198.669998 C 3185.126953 198.669998 3163 175.122009 3163 149.747009 C 3163.202881 146.701996 3163.406006 144.468994 3164.014893 142.235992 L 3164.624023 139.393997 C 3169.698975 117.266998 3190.811035 101.229996 3212.937988 101.229996 C 3213.343994 101.229996 3213.75 101.229996 3214.156006 101.229996 L 3392.999023 101.229996 L 3392.999023 78.899994 L 3214.156006 78.899994 C 3174.571045 78.899994 3139.655029 109.959 3139.655029 149.747009 Z M 2807.75 221.203003 L 3005.471924 221.203003 L 2985.172119 199.075989 L 2859.108887 199.075989 L 2937.669922 113.003998 L 2941.933105 117.673004 C 2960.812012 138.378998 3035.718994 220.188004 3036.733887 221.203003 L 3067.590088 221.203003 C 3035.922119 186.287003 2952.083008 94.328003 2937.669922 79.102997 Z M 2514.61792 221 L 2537.76001 221 L 2537.76001 160.912003 L 2753.549072 160.912003 L 2753.549072 138.785004 L 2514.415039 138.785004 Z M 2514.415039 78.697006 L 2514.415039 100.824005 L 2767.353027 100.824005 L 2767.353027 78.494003 Z M 2400.735107 221 L 2400.735107 78.899994 L 2377.389893 78.899994 L 2377.389893 221 Z M 2018.89209 101.229996 L 2133.586914 101.229996 L 2133.586914 221 L 2156.729004 221 L 2156.729004 101.229996 L 2271.830078 101.229996 L 2271.830078 78.899994 L 2018.89209 78.899994 Z M 1662.626953 101.432999 L 1875.167969 101.432999 C 1884.911987 102.447998 1893.031982 110.567993 1893.031982 120.311996 C 1893.031982 130.056 1884.911987 137.769989 1875.167969 139.19101 L 1662.829956 139.19101 L 1662.829956 221.203003 L 1685.972046 221.203003 L 1685.972046 161.317993 L 1842.078979 161.317993 L 1896.077026 221.203003 L 1923.482056 221.203003 L 1871.717041 161.11499 L 1872.529053 161.11499 C 1884.708984 160.912003 1894.046997 157.257996 1902.166992 149.949997 C 1929.978027 126.199005 1912.723022 79.102997 1872.529053 79.102997 L 1662.626953 79.102997 Z M 1299.256958 221.203003 L 1496.979004 221.203003 L 1476.678955 199.075989 L 1350.615967 199.075989 L 1429.177002 113.003998 L 1433.439941 117.673004 C 1452.31897 138.378998 1527.225952 220.188004 1528.240967 221.203003 L 1559.097046 221.203003 C 1527.428955 186.287003 1443.589966 94.328003 1429.177002 79.102997 Z M 782.216003 221 L 1035.560059 221 L 1035.560059 198.669998 L 782.216003 198.669998 Z M 1035.560059 100.824005 L 1035.560059 78.697006 L 782.216003 78.494003 L 782.216003 100.824005 Z M 782.216003 138.785004 L 782.216003 160.709 L 1023.380005 160.709 L 1023.380005 138.785004 Z M 415.597992 78.899994 L 415.597992 221 L 438.536987 221 L 438.536987 161.11499 L 645.393982 161.11499 L 645.393982 221 L 668.536011 221 L 668.536011 78.899994 L 645.393982 78.899994 L 645.393982 138.988007 L 438.536987 138.988007 L 438.536987 78.899994 Z M 57.099998 101.229996 L 171.794998 101.229996 L 171.794998 221 L 194.936996 221 L 194.936996 101.229996 L 310.037994 101.229996 L 310.037994 78.899994 L 57.099998 78.899994 Z"/>
</svg>
