<?xml version="1.0" encoding="UTF-8"?>
<!-- Generated by Pixelmator Pro 3.6.17 -->
<svg width="2200" height="500" viewBox="0 0 2200 500" xmlns="http://www.w3.org/2000/svg">
    <path id="THE-ARTIFACT" fill="#ffffff" fill-rule="evenodd" stroke="none" d="M 1878.568481 279.830017 L 1970.663452 279.830017 L 1970.663452 376 L 1989.245483 376 L 1989.245483 279.830017 L 2081.666504 279.830017 L 2081.666504 261.899994 L 1878.568481 261.899994 Z M 1596.741455 318.786987 C 1596.741455 350.734985 1624.451538 375.837006 1656.725464 375.837006 L 1800.328491 375.837006 L 1800.328491 358.070007 L 1656.725464 358.070007 C 1633.25354 358.070007 1615.48645 339.161987 1615.48645 318.786987 C 1615.649536 316.34201 1615.8125 314.549011 1616.301514 312.755981 L 1616.790527 310.473999 C 1620.865479 292.707001 1637.817505 279.830017 1655.584473 279.830017 C 1655.910522 279.830017 1656.23645 279.830017 1656.5625 279.830017 L 1800.165527 279.830017 L 1800.165527 261.899994 L 1656.5625 261.899994 C 1624.777466 261.899994 1596.741455 286.838989 1596.741455 318.786987 Z M 1330.23645 376.162994 L 1488.998535 376.162994 L 1472.698486 358.395996 L 1371.475464 358.395996 L 1434.556519 289.283997 L 1437.979492 293.03299 C 1453.13855 309.658997 1513.285522 375.347992 1514.100464 376.162994 L 1538.876465 376.162994 C 1513.448486 348.127014 1446.129517 274.287994 1434.556519 262.062988 Z M 1094.864502 376 L 1113.446533 376 L 1113.446533 327.752014 L 1286.715454 327.752014 L 1286.715454 309.984985 L 1094.701416 309.984985 Z M 1094.701416 261.737 L 1094.701416 279.503998 L 1297.799561 279.503998 L 1297.799561 261.574005 Z M 1003.421509 376 L 1003.421509 261.899994 L 984.676514 261.899994 L 984.676514 376 Z M 696.818481 279.830017 L 788.913513 279.830017 L 788.913513 376 L 807.495483 376 L 807.495483 279.830017 L 899.916504 279.830017 L 899.916504 261.899994 L 696.818481 261.899994 Z M 410.75351 279.992981 L 581.41449 279.992981 C 589.238525 280.807983 595.758545 287.328003 595.758545 295.152008 C 595.758545 302.976013 589.238525 309.169983 581.41449 310.311005 L 410.916504 310.311005 L 410.916504 376.162994 L 429.498505 376.162994 L 429.498505 328.078003 L 554.845459 328.078003 L 598.203491 376.162994 L 620.208496 376.162994 L 578.643494 327.915009 L 579.295532 327.915009 C 589.0755 327.752014 596.573486 324.817993 603.093506 318.950012 C 625.4245 299.878998 611.569458 262.062988 579.295532 262.062988 L 410.75351 262.062988 Z M 118.983498 376.162994 L 277.745483 376.162994 L 261.445496 358.395996 L 160.222504 358.395996 L 223.303497 289.283997 L 226.726501 293.03299 C 241.885498 309.658997 302.032501 375.347992 302.847504 376.162994 L 327.623505 376.162994 C 302.195496 348.127014 234.876495 274.287994 223.303497 262.062988 Z M 1218.135986 185 L 1327.959961 185 L 1327.959961 175.320007 L 1218.135986 175.320007 Z M 1327.959961 132.903992 L 1327.959961 123.312012 L 1218.135986 123.223999 L 1218.135986 132.903992 Z M 1218.135986 149.359985 L 1218.135986 158.864014 L 1322.680054 158.864014 L 1322.680054 149.359985 Z M 1059.208008 123.399994 L 1059.208008 185 L 1069.151978 185 L 1069.151978 159.039978 L 1158.823975 159.039978 L 1158.823975 185 L 1168.855957 185 L 1168.855957 123.399994 L 1158.823975 123.399994 L 1158.823975 149.447998 L 1069.151978 149.447998 L 1069.151978 123.399994 Z M 903.799988 133.079987 L 953.52002 133.079987 L 953.52002 185 L 963.552002 185 L 963.552002 133.079987 L 1013.447998 133.079987 L 1013.447998 123.399994 L 903.799988 123.399994 Z"/>
</svg>
